<svg width="39" height="56" viewBox="0 0 39 56" fill="none" xmlns="http://www.w3.org/2000/svg">
<path d="M1.85596 42.1428H19.4027H36.9493" stroke="#7EB693" stroke-width="2" stroke-miterlimit="10"/>
<path d="M5.82007 48.6085L19.4024 48.6085L32.9848 48.6085" stroke="#7EB693" stroke-width="2" stroke-miterlimit="10"/>
<path d="M18.8989 1.35986L18.8989 8.3969L18.8989 15.4339" stroke="#7EB693" stroke-width="2" stroke-miterlimit="10"/>
<path d="M18.9744 14.7142V41.2857" stroke="#7EB693" stroke-width="2" stroke-miterlimit="10"/>
<path d="M30.1015 4.42871L18.9744 15.5716" stroke="#7EB693" stroke-width="2" stroke-miterlimit="10"/>
<path d="M34.3812 8.71448L18.9744 24.143" stroke="#7EB693" stroke-width="2" stroke-miterlimit="10"/>
<path d="M36.949 15.5713L18.9744 32.7141" stroke="#7EB693" stroke-width="2" stroke-miterlimit="10"/>
<path d="M37.805 23.2858L18.9744 42.1429" stroke="#7EB693" stroke-width="2" stroke-miterlimit="10"/>
<path d="M37.8047 31.8572L27.5334 42.1429" stroke="#7EB693" stroke-width="2" stroke-miterlimit="10"/>
<path d="M1 31.8572L11.2712 42.1429" stroke="#7EB693" stroke-width="2" stroke-miterlimit="10"/>
<path d="M8.70361 4.42871L18.9749 15.5716" stroke="#7EB693" stroke-width="2" stroke-miterlimit="10"/>
<path d="M4.42383 8.71448L18.9747 24.143" stroke="#7EB693" stroke-width="2" stroke-miterlimit="10"/>
<path d="M1.85596 14.7142L18.9747 32.7142" stroke="#7EB693" stroke-width="2" stroke-miterlimit="10"/>
<path d="M1 22.4287L18.9747 41.2859" stroke="#7EB693" stroke-width="2" stroke-miterlimit="10"/>
<path d="M19.4026 55C9.24015 55 1 46.503 1 36.0195V19.9805C1 9.49892 9.24015 1 19.4026 1C29.567 1 37.8053 9.49892 37.8053 19.9805V36.0195C37.8071 46.503 29.567 55 19.4026 55Z" stroke="#7EB693" stroke-width="2" stroke-miterlimit="10"/>
</svg>
